<svg xmlns="http://www.w3.org/2000/svg" viewBox="0 0 900 380" width="900" height="380" font-family="ui-sans-serif,-apple-system,Segoe UI,Roboto,Helvetica,Arial,sans-serif" role="img" aria-label="The packages themselves exploded. Unpacked size of the package alone, log scale, by publish date">
<rect width="900" height="380" fill="#1a1a19"/>
<text x="62" y="22" font-size="15" font-weight="600" fill="#ffffff">The packages themselves exploded</text>
<text x="62" y="39" font-size="11.5" fill="#c3c2b7">Unpacked size of the package alone, log scale, by publish date</text>
<line x1="62" y1="340.0" x2="748" y2="340.0" stroke="#2e2e2c" stroke-width="1"/>
<text x="53" y="344.0" font-size="10.5" text-anchor="end" fill="#c3c2b7">0.01 MB</text>
<line x1="62" y1="275.3" x2="748" y2="275.3" stroke="#2e2e2c" stroke-width="1"/>
<text x="53" y="279.3" font-size="10.5" text-anchor="end" fill="#c3c2b7">0.1 MB</text>
<line x1="62" y1="210.6" x2="748" y2="210.6" stroke="#2e2e2c" stroke-width="1"/>
<text x="53" y="214.6" font-size="10.5" text-anchor="end" fill="#c3c2b7">1 MB</text>
<line x1="62" y1="145.8" x2="748" y2="145.8" stroke="#2e2e2c" stroke-width="1"/>
<text x="53" y="149.8" font-size="10.5" text-anchor="end" fill="#c3c2b7">10 MB</text>
<line x1="62" y1="81.1" x2="748" y2="81.1" stroke="#2e2e2c" stroke-width="1"/>
<text x="53" y="85.1" font-size="10.5" text-anchor="end" fill="#c3c2b7">100 MB</text>
<text x="53" y="52" font-size="10.5" text-anchor="end" fill="#c3c2b7">size</text>
<text x="133.5" y="360" font-size="10.5" text-anchor="middle" fill="#c3c2b7">2019</text>
<text x="294.3" y="360" font-size="10.5" text-anchor="middle" fill="#c3c2b7">2021</text>
<text x="454.9" y="360" font-size="10.5" text-anchor="middle" fill="#c3c2b7">2023</text>
<text x="615.8" y="360" font-size="10.5" text-anchor="middle" fill="#c3c2b7">2025</text>
<line x1="62" y1="340" x2="748" y2="340" stroke="#4a4a46" stroke-width="1"/>
<path d="M71.7 239.2 L79.2 237.5 L81.8 237.4 L82.2 237.4 L82.9 237.2 L92.1 236.5 L92.6 236.4 L108.0 236.4 L110.6 234.2 L112.8 233.8 L115.5 233.8 L142.3 232.2 L142.5 243.2 L143.0 243.1 L144.7 242.7 L144.9 242.8 L153.5 236.7 L156.8 233.7 L174.9 233.8 L175.5 233.4 L176.6 233.1 L180.1 232.1 L184.1 231.9 L185.2 233.6 L190.5 224.7 L192.9 223.4 L194.7 222.9 L194.9 222.9 L195.1 222.9 L199.7 222.4 L201.9 222.1 L204.1 221.6 L208.7 221.0 L210.5 220.1 L214.2 219.5 L216.9 223.2 L218.6 222.6 L224.4 221.0 L228.8 219.8 L230.5 219.6 L232.5 218.7 L233.4 218.7 L233.8 162.0 L236.9 161.9 L239.8 161.8 L242.6 161.5 L243.7 163.2 L244.6 156.8 L246.4 156.2 L246.4 156.2 L259.6 162.0 L260.2 161.8 L262.7 164.0 L267.5 161.8 L275.4 161.7 L276.1 161.5 L279.8 160.5 L281.4 160.5 L284.7 153.8 L286.0 154.0 L292.1 154.0 L295.4 152.7 L300.5 133.3 L304.2 124.8 L308.2 122.5 L310.4 122.5 L313.5 122.4 L313.5 122.4 L313.7 122.4 L314.4 122.4 L320.1 120.8 L324.7 120.8 L324.9 120.8 L325.8 120.8 L330.6 120.7 L332.2 117.8 L343.2 117.2 L347.4 107.1 L347.6 107.1 L359.9 117.3 L360.1 117.2 L361.0 117.2 L362.1 117.2 L364.3 117.0 L368.3 117.0 L368.5 117.0 L368.5 107.0 L368.7 117.0 L377.1 116.0 L380.1 115.1 L380.4 107.0 L381.5 115.1 L385.0 115.0 L392.9 114.9 L393.6 114.9 L394.0 114.9 L394.2 114.9 L396.9 114.9 L401.3 114.4 L413.8 121.7 L415.8 121.6 L416.2 121.6 L419.1 120.2 L421.9 120.2 L423.7 119.3 L429.6 122.5 L432.1 122.1 L434.3 119.3 L440.0 112.7 L441.1 122.1 L441.3 112.7 L442.2 112.6 L443.3 122.1 L443.7 112.5 L445.3 112.4 L445.9 122.1 L446.4 112.1 L448.3 112.1 L451.2 112.3 L452.7 112.3 L453.2 112.3 L457.4 110.0 L459.1 110.0 L459.1 110.0 L459.8 110.0 L460.9 109.6 L466.6 106.5 L466.8 106.5 L467.9 106.4 L467.9 106.4 L469.9 106.2 L475.8 105.3 L479.1 106.0 L480.9 101.7 L481.3 101.7 L481.3 101.7 L482.0 101.1 L482.2 101.1 L483.5 101.1 L485.3 101.1 L486.6 101.1 L490.1 100.8 L491.2 100.8 L492.6 100.8 L495.2 100.7 L495.9 100.7 L497.6 99.9 L499.2 99.9 L499.2 99.8 L502.9 99.7 L504.4 99.7 L504.7 99.7 L505.1 99.6 L505.3 99.6 L505.5 99.6 L512.4 98.6 L512.4 98.6 L512.6 98.3 L513.7 98.3 L515.4 92.9 L518.3 91.6 L518.7 91.5 L520.5 91.0 L521.4 91.0 L523.6 86.8 L525.1 86.7 L529.7 86.6 L539.0 86.6 L548.2 86.5 L549.1 86.5 L549.5 86.5 L552.6 86.5 L557.5 86.7 L557.7 86.7 L559.0 86.7 L560.3 86.6 L570.9 86.7 L577.3 86.7 L586.5 86.7 L587.8 86.7 L589.6 86.6 L590.7 86.6 L591.1 86.6 L591.4 86.6 L592.5 91.5 L592.5 86.6 L593.1 86.6 L595.5 86.6 L597.1 86.6 L599.9 81.7 L600.4 86.6 L600.4 81.6 L601.7 77.9 L603.2 86.6 L603.7 77.8 L605.0 86.6 L609.4 86.6 L609.6 86.6 L609.8 77.8 L610.9 77.2 L612.5 77.2 L612.9 86.5 L612.9 77.2 L613.4 91.5 L614.5 86.5 L614.5 77.2 L617.1 86.5 L617.1 77.2 L619.3 77.4 L620.4 77.4 L624.8 86.5 L624.8 77.4 L628.1 79.5 L629.2 79.3 L631.0 79.5 L632.3 86.5 L632.5 79.5 L633.4 91.5 L633.6 122.1 L633.8 122.1 L633.8 91.5 L633.8 86.5 L633.8 79.5 L634.5 91.5 L634.7 122.1 L636.9 86.5 L637.1 86.5 L637.1 79.5 L637.3 75.6 L639.1 75.6 L643.3 75.6 L646.4 86.5 L646.8 77.4 L648.3 75.6 L648.6 75.5 L651.4 86.5 L652.7 75.6 L656.0 75.6 L658.5 74.2 L659.3 74.2 L660.2 74.2 L660.7 74.2 L661.8 74.2 L662.0 86.5 L663.5 74.2 L666.2 86.5 L666.2 74.2 L666.6 73.4 L667.9 73.4 L667.9 73.4 L671.2 73.4 L674.1 86.5 L674.1 73.4 L678.5 73.4 L679.4 73.4 L680.5 73.1 L681.8 73.1 L685.1 73.1 L685.3 73.2 L687.7 73.2 L688.2 73.2 L689.0 73.2 L689.7 79.4 L689.7 77.9 L689.7 77.2 L689.7 75.5 L689.7 74.1 L689.7 73.4 L689.7 73.1 L690.8 73.1 L691.5 86.5 L691.5 86.5 L691.5 79.3 L691.5 79.3 L691.5 77.8 L691.5 77.8 L691.5 77.2 L691.5 77.2 L691.5 75.5 L691.5 75.5 L691.5 74.1 L691.5 74.1 L691.5 73.3 L691.5 73.3 L691.5 73.1 L691.5 73.1 L693.0 72.8 L693.9 72.8 L698.9 72.8 L699.4 72.8 L700.0 72.8 L701.6 79.2 L701.6 77.7 L701.6 77.1 L701.6 75.4 L701.6 74.0 L701.6 73.2 L701.6 73.0 L701.6 72.7 L701.8 72.7 L702.0 73.1 L703.6 73.1 L712.4 73.1 L712.4 72.7 L712.8 70.3 L713.0 73.1 L713.2 70.3 L715.9 70.2 L717.4 73.1 L717.4 70.2 L719.0 70.2 L723.6 73.1 L723.6 70.1 L723.8 73.1 L723.8 70.1 L729.3 73.1 L729.3 70.1 L731.1 70.1 L731.1 70.1 L735.9 73.1 L735.9 70.1 L740.3 73.0 L740.3 70.1 L741.2 73.0 L741.2 70.0 L743.2 65.3 L745.4 65.2 L747.1 65.2 L748.0 65.2" fill="none" stroke="#3987e5" stroke-width="2" stroke-linejoin="round" stroke-linecap="round"/>
<path d="M62.0 214.3 L65.3 208.8 L65.5 208.9 L66.8 208.7 L67.5 208.8 L70.6 208.9 L71.9 209.1 L72.3 209.1 L72.3 209.1 L73.7 209.0 L76.5 208.7 L80.3 208.2 L80.9 207.9 L80.9 207.0 L81.8 214.2 L81.8 206.9 L82.0 207.0 L84.9 206.8 L84.9 206.7 L85.5 206.7 L85.5 206.4 L85.8 207.3 L86.0 207.2 L87.3 206.8 L87.5 206.8 L88.0 206.7 L91.5 206.6 L92.1 206.6 L92.4 206.4 L92.6 206.4 L93.7 204.8 L93.9 205.4 L95.2 205.0 L96.3 205.0 L97.9 204.8 L98.7 204.8 L100.1 204.8 L100.9 204.7 L104.2 204.7 L104.5 204.7 L107.1 204.7 L108.6 204.8 L108.6 204.7 L109.3 204.8 L109.3 204.7 L110.4 204.7 L111.9 204.4 L111.9 204.4 L111.9 204.4 L116.8 204.4 L117.7 204.3 L118.3 203.3 L118.5 203.3 L120.3 203.3 L121.0 203.1 L121.0 203.0 L124.0 203.0 L125.4 203.0 L127.3 202.9 L127.6 202.9 L130.6 203.0 L130.9 203.0 L131.3 203.0 L132.8 203.0 L135.5 202.9 L137.7 202.9 L141.0 202.8 L141.4 202.8 L141.6 202.8 L143.4 202.8 L144.1 202.8 L146.3 202.8 L155.7 202.7 L161.7 202.7 L164.1 202.7 L164.5 202.7 L164.5 202.6 L167.4 202.6 L169.1 202.6 L170.9 202.5 L173.3 202.5 L173.3 202.5 L174.9 202.5 L176.8 202.3 L176.8 202.3 L178.2 201.9 L178.8 201.7 L180.1 201.6 L180.4 201.6 L182.8 201.6 L185.9 201.6 L189.4 201.5 L189.6 201.5 L189.6 201.5 L192.0 201.4 L192.0 201.2 L195.8 201.2 L196.6 201.2 L210.3 201.2 L210.9 201.2 L212.7 201.2 L222.8 201.1 L227.2 201.1 L232.1 201.1 L238.2 201.1 L258.9 201.0 L260.2 200.9 L271.0 201.0 L276.1 179.2 L276.7 179.2 L277.2 179.2 L277.2 179.1 L277.4 179.1 L278.7 179.1 L279.8 179.1 L279.8 178.9 L280.0 178.9 L280.3 178.9 L281.4 178.8 L284.4 178.8 L284.7 178.8 L284.9 178.8 L286.4 178.8 L286.4 178.7 L286.9 178.7 L288.2 178.8 L289.7 178.7 L290.6 178.5 L290.6 178.5 L291.0 178.5 L293.5 178.4 L295.9 201.0 L295.9 178.2 L295.9 178.1 L296.1 178.1 L296.3 178.1 L296.5 200.9 L296.5 178.1 L297.0 178.1 L297.4 178.0 L298.3 177.9 L299.0 177.7 L299.8 177.6 L300.5 177.5 L301.4 177.3 L301.6 177.3 L301.8 177.3 L302.0 177.1 L302.3 177.1 L302.5 177.1 L304.2 176.9 L304.9 176.9 L305.8 176.8 L306.0 176.8 L306.2 176.8 L307.8 176.8 L308.9 176.8 L309.7 176.6 L310.2 176.6 L310.4 176.5 L310.6 176.5 L310.6 176.5 L310.8 176.5 L311.3 176.5 L311.5 176.5 L311.9 176.5 L312.4 176.4 L314.1 176.4 L314.1 176.3 L315.5 176.2 L315.9 176.2 L315.9 176.2 L316.6 176.1 L317.0 175.9 L317.0 175.9 L317.0 175.9 L318.1 173.6 L318.5 173.6 L319.0 173.6 L319.9 173.5 L320.1 173.5 L320.5 173.5 L322.7 173.3 L324.7 173.3 L326.5 173.3 L326.5 173.3 L330.4 173.3 L331.1 173.3 L332.0 173.3 L333.5 173.1 L333.7 173.1 L334.4 173.1 L335.0 173.1 L335.3 173.0 L335.7 173.0 L337.5 173.0 L337.5 173.0 L338.8 173.0 L339.9 173.0 L340.3 173.0 L341.2 172.9 L342.1 172.7 L343.0 172.6 L344.9 172.5 L344.9 172.5 L348.0 172.5 L348.2 172.5 L349.8 172.5 L351.1 172.4 L352.9 172.2 L353.7 172.2 L354.0 172.1 L354.4 172.1 L355.1 172.1 L355.3 172.1 L355.3 172.1 L355.7 172.1 L355.9 172.1 L357.0 172.1 L358.4 171.9 L358.6 171.9 L359.7 171.9 L360.6 171.8 L362.1 171.7 L362.1 171.7 L363.0 171.7 L363.0 171.7 L363.4 171.7 L364.3 171.7 L365.4 171.7 L366.3 171.7 L366.5 171.7 L368.9 171.6 L377.1 170.9 L379.0 170.7 L381.2 170.7 L384.5 170.6 L385.0 170.7 L388.1 170.5 L394.4 170.4 L395.8 170.4 L403.0 170.4 L408.1 170.3 L419.7 170.2 L443.3 170.2 L469.5 170.2 L469.9 170.2 L471.0 170.2 L472.5 170.2 L474.1 170.2 L475.6 170.1 L477.2 169.7 L478.7 169.7 L480.2 169.4 L481.8 169.1 L483.3 169.1 L484.9 169.0 L484.9 169.0 L486.4 168.7 L486.6 168.7 L487.9 168.6 L489.0 168.6 L489.5 168.5 L491.0 168.3 L492.6 168.1 L494.1 168.1 L498.5 168.1 L509.5 200.7 L517.6 168.0 L540.3 167.8 L542.1 167.7 L545.1 167.7 L546.0 167.7 L552.6 167.0 L570.9 166.8 L572.6 166.8 L577.5 166.7 L586.7 166.2 L594.2 166.2 L602.1 165.7 L602.4 165.7 L609.4 165.5 L609.8 165.5 L625.2 165.5 L636.9 165.1 L636.9 165.1 L637.1 165.1 L637.1 165.1 L637.1 165.1 L637.1 165.1 L639.3 165.0 L640.9 165.0 L643.3 164.9 L646.4 164.8 L657.4 164.4 L657.8 164.4 L658.7 164.4 L661.5 164.2 L664.8 164.2 L665.3 164.1 L666.2 164.1 L675.4 163.8 L677.2 163.7 L686.4 163.2 L692.6 163.0 L693.0 163.0 L703.3 162.6 L704.9 162.6 L705.3 162.6 L708.4 162.5 L709.5 162.5 L717.4 162.2 L717.9 162.2 L719.0 160.9 L726.7 159.4 L726.9 159.0 L727.8 158.8 L734.6 156.3 L734.8 156.3 L735.5 156.3 L735.5 156.3 L736.6 156.0 L740.7 153.2 L741.6 153.1 L741.8 153.0" fill="none" stroke="#d95926" stroke-width="2" stroke-linejoin="round" stroke-linecap="round"/>
<path d="M63.3 186.9 L64.2 186.9 L66.4 186.9 L69.5 186.8 L70.8 186.8 L91.3 186.2 L91.9 186.2 L94.6 186.2 L97.4 186.2 L100.5 185.7 L103.6 185.7 L106.7 185.6 L109.7 185.6 L112.6 185.6 L115.7 185.5 L118.8 185.5 L121.8 185.3 L128.2 185.2 L131.5 185.1 L132.4 185.1 L134.2 185.1 L137.2 184.8 L140.3 184.9 L143.4 184.7 L144.1 184.7 L146.7 184.7 L147.4 184.7 L149.6 184.6 L150.2 184.7 L152.9 184.7 L171.3 183.8 L172.0 183.8 L177.7 183.7 L183.9 183.4 L184.3 183.4 L185.2 183.4 L186.5 183.3 L189.8 183.0 L193.1 182.8 L193.6 182.8 L198.8 182.7 L205.0 182.0 L205.7 182.0 L206.8 182.0 L211.2 181.9 L242.0 180.4 L245.3 180.3 L248.1 180.2 L251.2 180.0 L252.1 180.0 L254.3 179.9 L257.6 179.7 L260.5 179.6 L263.5 179.6 L267.3 179.6 L267.5 179.6 L269.9 179.5 L273.0 179.5 L275.9 179.5 L279.2 180.3 L279.8 180.3 L282.2 180.3 L285.1 180.2 L288.4 180.1 L291.3 180.1 L294.6 180.1 L297.4 180.0 L300.9 180.0 L303.6 179.9 L306.9 179.9 L309.7 179.9 L312.8 179.8 L315.9 179.8 L319.0 179.8 L322.3 179.7 L325.4 179.7 L328.2 179.6 L331.3 179.5 L334.4 179.3 L337.7 179.3 L340.5 179.3 L356.2 184.8 L357.3 184.8 L359.0 184.7 L362.1 184.7 L365.6 184.6 L368.5 184.2 L369.1 184.2 L371.3 184.1 L374.4 184.1 L377.9 184.6 L380.6 184.6 L383.9 184.2 L386.7 184.1 L389.8 184.0 L392.9 184.0 L396.0 184.0 L399.1 183.8 L402.1 183.8 L405.2 183.8 L408.3 183.7 L411.4 183.7 L414.7 183.7 L417.8 183.7 L421.3 183.0 L424.1 183.0 L426.8 182.9 L430.5 182.9 L432.9 182.7 L436.0 182.7 L439.1 182.6 L442.6 182.5 L445.3 182.5 L448.3 182.5 L451.4 182.4 L454.7 182.4 L458.0 182.3 L460.9 182.3 L463.7 182.3 L467.3 182.3 L469.9 182.3 L473.9 182.2 L476.1 182.2 L479.1 182.2 L482.2 182.1 L485.3 182.1 L488.4 182.1 L491.5 182.1 L494.5 182.1 L497.6 182.1 L500.7 181.9 L503.8 181.9 L506.9 181.9 L509.9 181.7 L513.0 181.4 L516.1 181.0 L519.2 180.9 L522.3 180.8 L525.3 180.7 L528.4 180.7 L531.5 180.7 L546.9 180.7 L556.1 180.8 L559.2 180.7 L559.9 180.7 L562.3 180.8 L565.4 180.7 L568.5 180.6 L571.5 180.4 L574.6 180.4 L577.7 180.3 L580.8 180.3 L583.9 180.3 L587.0 180.3 L590.0 178.4 L592.2 180.6 L593.1 178.3 L593.8 178.3 L596.2 178.2 L599.3 178.1 L602.4 178.0 L605.4 178.0 L608.5 178.0 L611.6 177.7 L617.8 177.7 L620.8 177.6 L623.9 177.6 L624.8 177.6 L627.0 177.0 L630.1 176.9 L633.2 182.0 L636.2 181.8 L639.3 181.8 L640.0 181.8 L642.4 181.7 L645.5 181.7 L648.6 181.5 L651.6 181.5 L654.7 181.5 L655.6 181.5 L657.8 181.5 L660.9 181.4 L664.0 181.4 L667.0 181.1 L670.1 181.0 L673.2 180.9 L676.3 180.9 L679.4 180.9 L682.4 181.1 L683.1 181.1 L691.7 181.1 L704.0 182.1 L707.1 182.1 L707.1 180.9 L707.7 182.1 L710.2 182.1 L710.2 180.9 L713.2 182.0 L716.3 182.0 L719.4 182.0 L722.5 181.9 L725.6 181.9 L728.6 181.9 L731.7 181.9 L734.8 181.8 L737.9 181.8 L737.9 180.9 L741.0 181.8 L744.0 181.7 L747.1 181.7 L747.8 181.7" fill="none" stroke="#199e70" stroke-width="2" stroke-linejoin="round" stroke-linecap="round"/>
<path d="M68.6 256.4 L115.5 256.3 L163.4 256.0 L165.4 256.0 L371.3 255.8 L385.0 255.8 L399.7 255.3 L400.6 255.3 L436.2 255.2 L548.2 255.2 L552.6 255.1 L552.6 255.1 L553.7 255.1 L590.9 257.7 L590.9 254.4 L591.1 254.3 L597.1 257.7 L597.1 254.3 L609.8 254.3 L635.4 257.5 L689.3 284.5 L689.3 284.5 L689.3 254.3 L689.3 254.2 L724.7 254.1" fill="none" stroke="#c98500" stroke-width="2" stroke-linejoin="round" stroke-linecap="round"/>
<path d="M67.9 186.6 L68.2 186.6 L68.8 186.6 L99.8 186.6 L128.0 178.6 L128.4 178.6 L128.7 178.6 L128.9 178.6 L135.7 189.5 L141.0 181.8 L141.0 181.8 L141.2 181.8 L141.4 181.7 L141.9 181.6 L142.5 181.5 L142.7 181.5 L144.7 181.4 L146.5 181.3 L149.3 181.3 L150.7 181.2 L209.6 181.2 L264.9 181.2 L271.2 191.2 L277.2 190.8 L278.3 190.7 L286.2 190.5 L287.7 190.3 L293.9 190.2 L306.2 190.2 L307.3 190.0 L312.8 189.6 L313.0 189.5 L313.9 189.5 L314.1 189.5 L327.6 181.3 L328.9 187.9 L328.9 187.9 L328.9 181.3 L332.2 187.6 L334.2 187.3 L334.4 187.3 L337.5 187.2 L342.7 185.7 L342.7 185.7 L343.2 185.7 L344.3 185.7 L344.5 185.7 L346.0 185.7 L346.0 185.7 L347.8 185.7 L348.0 185.6 L348.7 185.6 L349.1 185.6 L349.3 185.6 L351.3 186.4 L352.2 186.4 L352.4 186.4 L352.6 186.4 L352.6 186.4 L352.9 186.4 L352.9 186.4 L353.1 186.4 L355.9 186.3 L361.4 186.2 L364.3 186.2 L366.7 186.2 L368.9 186.2 L370.2 186.1 L370.2 186.1 L377.9 186.1 L379.0 186.0 L379.5 186.0 L382.8 186.0 L383.9 186.0 L396.9 185.9 L397.3 185.8 L405.0 185.6 L405.2 185.6 L405.9 185.6 L409.0 185.6 L414.5 168.0 L415.1 167.9 L415.3 167.9 L415.6 167.9 L416.0 169.5 L417.1 169.5 L417.5 169.5 L417.8 169.5 L419.1 169.4 L425.2 169.3 L426.1 169.3 L427.7 185.2 L429.6 185.2 L434.0 185.2 L436.9 169.7 L437.1 169.7 L437.6 185.8 L437.6 169.7 L443.3 185.8 L443.3 185.8 L443.3 185.8 L443.3 169.7 L443.7 185.7 L462.0 185.6 L462.0 185.6 L483.5 192.3 L483.5 192.3 L483.8 192.3 L485.1 192.3 L485.1 192.3 L519.2 192.2 L519.2 192.2 L519.8 169.6 L520.1 192.0 L522.9 192.0 L527.1 192.0 L529.1 191.9 L530.0 191.8 L531.7 191.8 L532.4 191.8 L533.5 169.5 L534.6 190.2 L534.8 190.2 L534.8 190.2 L534.8 190.2 L535.7 190.2 L535.9 190.2 L536.8 190.1 L537.0 190.1 L537.2 190.1 L537.4 190.1 L537.4 190.1 L537.7 190.1 L537.9 190.1 L537.9 190.0 L538.3 190.0 L539.0 190.0 L543.6 189.9 L543.8 189.9 L543.8 189.9 L544.7 189.9 L547.6 189.9 L548.0 189.9 L558.3 189.8 L558.6 189.8 L559.9 189.8 L560.3 189.8 L561.4 189.8 L563.2 189.8 L571.5 189.7 L571.5 189.6 L573.3 189.7 L574.6 189.8 L578.8 189.6 L579.3 189.6 L580.4 189.6 L581.9 189.6 L583.2 189.6 L583.7 189.6 L585.2 189.6 L589.4 187.6 L589.6 187.6 L589.8 187.5 L590.0 187.5 L590.9 187.5 L591.6 187.5 L592.2 187.5 L593.1 187.4 L593.6 187.4 L594.4 187.4 L594.7 187.4 L596.0 187.4 L597.7 187.5 L605.4 187.4 L645.3 187.3 L647.7 187.2 L648.3 187.2 L652.7 187.2 L660.4 187.1 L666.8 187.2 L667.7 187.2 L669.5 187.1 L674.5 187.0 L683.8 186.9 L684.0 186.9 L687.7 186.9 L693.0 186.8 L700.0 186.7 L704.7 186.6 L708.0 186.6 L710.8 186.4 L714.3 186.4 L716.3 186.4 L720.5 186.3 L723.6 186.3 L728.2 186.2 L731.5 186.2 L731.5 186.2 L731.5 186.2 L734.6 186.1 L739.2 186.0 L743.6 185.8" fill="none" stroke="#d55181" stroke-width="2" stroke-linejoin="round" stroke-linecap="round"/>
<path d="M72.3 271.9 L73.7 272.0 L76.3 271.7 L84.7 270.7 L89.1 270.5 L99.8 270.5 L107.8 262.5 L109.3 261.9 L110.4 261.0 L118.1 258.8 L121.4 258.1 L122.7 286.4 L122.7 257.9 L130.9 257.3 L141.4 256.9 L141.4 256.9 L143.2 256.8 L144.7 256.7 L147.4 256.7 L151.1 256.6 L152.4 256.6 L181.7 252.9 L192.7 252.6 L192.9 252.6 L194.0 252.6 L198.2 252.8 L203.2 253.4 L226.1 256.6 L231.0 256.6 L277.0 248.7 L277.0 226.5 L277.0 184.3 L278.3 245.9 L278.7 245.9 L311.9 246.6 L393.8 244.3 L399.9 244.3 L410.7 244.3 L560.5 244.1 L560.8 244.1 L609.8 252.3 L634.7 262.2 L661.5 262.2 L675.8 261.4 L689.7 262.2 L689.7 261.4 L689.7 252.3 L691.5 262.2 L691.5 262.2 L691.5 261.4 L691.5 261.4 L691.5 252.3 L691.5 252.3 L701.6 262.2 L701.6 261.4 L701.6 252.3 L717.4 262.2 L717.4 261.4 L717.4 252.3 L723.6 262.2 L723.6 261.4 L723.6 252.3 L729.3 262.2 L729.3 261.4 L729.3 252.3 L740.3 262.2 L740.3 261.4 L740.3 252.3" fill="none" stroke="#9085e9" stroke-width="2" stroke-linejoin="round" stroke-linecap="round"/>
<circle cx="748.0" cy="65.2" r="4" fill="#3987e5" stroke="#1a1a19" stroke-width="2"/>
<text x="762" y="70.0" font-size="11.5"><tspan fill="#ffffff" font-weight="600">next</tspan><tspan dx="5" fill="#c3c2b7">176.2 MB</tspan></text>
<circle cx="741.8" cy="153.0" r="4" fill="#d95926" stroke="#1a1a19" stroke-width="2"/>
<text x="762" y="157.0" font-size="11.5"><tspan fill="#ffffff" font-weight="600">webpack</tspan><tspan dx="5" fill="#c3c2b7">7.7 MB</tspan></text>
<circle cx="747.8" cy="181.7" r="4" fill="#199e70" stroke="#1a1a19" stroke-width="2"/>
<text x="762" y="185.7" font-size="11.5"><tspan fill="#ffffff" font-weight="600">eslint</tspan><tspan dx="5" fill="#c3c2b7">2.8 MB</tspan></text>
<circle cx="743.6" cy="185.8" r="4" fill="#d55181" stroke="#1a1a19" stroke-width="2"/>
<path d="M748.6 185.8 L756.0 196.7" fill="none" stroke="#d55181" stroke-width="1" opacity="0.45"/>
<text x="762" y="200.7" font-size="11.5"><tspan fill="#ffffff" font-weight="600">vue</tspan><tspan dx="5" fill="#c3c2b7">2.4 MB</tspan></text>
<circle cx="740.3" cy="252.3" r="4" fill="#9085e9" stroke="#1a1a19" stroke-width="2"/>
<text x="762" y="256.3" font-size="11.5"><tspan fill="#ffffff" font-weight="600">react</tspan><tspan dx="5" fill="#c3c2b7">0.2 MB</tspan></text>
<circle cx="724.7" cy="254.1" r="4" fill="#c98500" stroke="#1a1a19" stroke-width="2"/>
<path d="M729.7 254.1 L756.0 267.3" fill="none" stroke="#c98500" stroke-width="1" opacity="0.45"/>
<text x="762" y="271.3" font-size="11.5"><tspan fill="#ffffff" font-weight="600">express</tspan><tspan dx="5" fill="#c3c2b7">0.2 MB</tspan></text>
</svg>